<svg width="48" height="48" viewBox="0 0 48 48" fill="none" xmlns="http://www.w3.org/2000/svg">
<rect width="48" height="48" fill="#323238"/>
<path d="M23.9985 12C17.373 12 12 17.5087 12 24.3041C12 29.7393 15.438 34.3503 20.208 35.9787C20.808 36.092 21.027 35.7121 21.027 35.3858C21.027 35.0932 21.0165 34.3196 21.0105 33.2933C17.673 34.0362 16.968 31.6434 16.968 31.6434C16.4235 30.2218 15.636 29.8434 15.636 29.8434C14.5455 29.0806 15.717 29.0959 15.717 29.0959C16.9215 29.1832 17.5545 30.3643 17.5545 30.3643C18.6255 32.2439 20.364 31.7016 21.048 31.3861C21.156 30.591 21.4665 30.0487 21.81 29.7408C19.146 29.4298 16.344 28.3744 16.344 23.6607C16.344 22.3173 16.812 21.2189 17.58 20.358C17.4555 20.047 17.0445 18.7955 17.697 17.1027C17.697 17.1027 18.705 16.7718 20.997 18.3635C21.954 18.0908 22.98 17.9545 24.0015 17.9499C25.02 17.956 26.0475 18.0908 27.006 18.365C29.2965 16.7734 30.303 17.1043 30.303 17.1043C30.957 18.7985 30.546 20.0485 30.423 20.3595C31.1925 21.2204 31.656 22.3188 31.656 23.6623C31.656 28.3882 28.851 29.4283 26.178 29.7331C26.6085 30.1131 26.9925 30.8637 26.9925 32.0111C26.9925 33.6563 26.9775 34.9829 26.9775 35.3858C26.9775 35.7152 27.1935 36.0981 27.8025 35.9771C32.565 34.3472 36 29.7377 36 24.3041C36 17.5087 30.627 12 23.9985 12Z" fill="white"/>
</svg>
